<svg width="55" height="55" viewBox="0 0 55 55" fill="none" xmlns="http://www.w3.org/2000/svg">
<circle cx="27.5" cy="27.5" r="27.5" fill="#677888"/>
<path d="M40.3057 17.9756C40.4075 18.0772 40.4883 18.1979 40.5435 18.3308C40.5986 18.4637 40.627 18.6061 40.627 18.75C40.627 18.8939 40.5986 19.0363 40.5435 19.1692C40.4883 19.3021 40.4075 19.4228 40.3057 19.5244L24.9932 34.8369C24.8916 34.9387 24.7709 35.0195 24.638 35.0747C24.5051 35.1298 24.3627 35.1582 24.2188 35.1582C24.0749 35.1582 23.9325 35.1298 23.7996 35.0747C23.6667 35.0195 23.546 34.9387 23.4444 34.8369L15.7882 27.1806C15.5828 26.9753 15.4674 26.6967 15.4674 26.4063C15.4674 26.1158 15.5828 25.8373 15.7882 25.6319C15.9935 25.4265 16.2721 25.3111 16.5625 25.3111C16.853 25.3111 17.1315 25.4265 17.3369 25.6319L24.2188 32.5159L38.7569 17.9756C38.8585 17.8738 38.9792 17.793 39.1121 17.7378C39.245 17.6827 39.3874 17.6543 39.5313 17.6543C39.6752 17.6543 39.8176 17.6827 39.9505 17.7378C40.0834 17.793 40.2041 17.8738 40.3057 17.9756Z" fill="white"/>
</svg>
